<?xml version="1.0" standalone="no"?>
<!DOCTYPE svg PUBLIC "-//W3C//DTD SVG 20010904//EN"
 "http://www.w3.org/TR/2001/REC-SVG-20010904/DTD/svg10.dtd">
<svg version="1.0" xmlns="http://www.w3.org/2000/svg"
 width="800.000000pt" height="420.000000pt" viewBox="0 0 800.000000 420.000000"
 preserveAspectRatio="xMidYMid meet">

<g transform="translate(0.000000,420.000000) scale(0.100000,-0.100000)"
fill="#000000" stroke="none">
<path d="M0 2100 l0 -2100 4000 0 4000 0 0 2100 0 2100 -4000 0 -4000 0 0
-2100z m7512 1615 c5 -6 -222 -451 -242 -472 -8 -10 -144 -13 -614 -13 l-602
0 -86 -197 -85 -198 593 -3 c382 -1 594 -6 594 -12 0 -9 -147 -323 -168 -360
-8 -13 -88 -15 -606 -18 l-597 -2 -65 -137 c-36 -75 -81 -170 -101 -212 -65
-140 -110 -235 -147 -313 l-36 -78 -485 0 c-267 0 -485 2 -485 3 0 2 18 41 40
86 22 45 40 83 40 85 0 2 24 55 54 117 57 122 83 179 153 329 24 52 64 138 89
190 155 329 301 646 298 649 -6 6 -176 -50 -244 -80 -35 -17 -85 -43 -111 -59
-48 -31 -119 -42 -119 -17 0 6 42 59 93 117 286 321 487 449 840 535 88 22
280 50 397 58 76 6 1596 7 1602 2z m-3482 -32 c235 -52 392 -137 473 -255 72
-105 71 -217 -3 -432 -125 -361 -332 -772 -457 -907 -168 -181 -464 -338 -716
-379 -54 -9 -2347 -16 -2347 -7 0 2 39 86 86 187 47 102 96 208 109 235 64
140 90 196 175 380 51 110 105 227 120 260 15 33 69 150 120 260 51 110 113
245 139 300 26 55 76 164 111 243 l65 142 1015 -3 c987 -3 1018 -4 1110 -24z
m-3103 -3046 c78 -42 80 -93 9 -243 -54 -114 -100 -163 -181 -193 -52 -20 -76
-21 -340 -21 -157 0 -285 2 -285 4 0 2 18 40 40 85 22 44 40 83 40 85 0 2 29
65 65 141 36 75 65 140 65 145 0 22 44 25 292 20 227 -4 267 -7 295 -23z m293
17 c4 -5 27 -45 50 -89 23 -44 43 -81 45 -83 1 -2 63 37 137 87 l135 89 122 4
c66 1 121 0 121 -3 0 -3 -80 -54 -177 -114 -98 -59 -197 -119 -220 -133 -36
-23 -48 -40 -89 -129 l-47 -103 -113 0 c-63 0 -114 2 -114 4 0 2 22 50 49 107
37 79 46 107 38 117 -23 29 -155 247 -152 252 5 9 206 3 215 -6z m940 -5 c34
-13 41 -27 75 -141 15 -54 32 -98 37 -98 4 0 35 56 67 124 l59 125 104 3 c57
2 107 0 111 -3 4 -3 -42 -111 -103 -240 l-110 -234 -142 0 -141 0 -46 149
c-25 82 -50 151 -56 152 -5 2 -42 -65 -81 -149 l-71 -152 -117 -3 c-64 -1
-116 -1 -116 1 0 2 16 36 35 76 19 39 69 145 111 234 42 89 80 164 84 167 14
9 274 0 300 -11z m1130 -230 l0 -239 -104 0 -105 0 -3 48 -3 47 -115 3 -115 3
-45 -51 -46 -51 -120 3 -121 3 198 209 c108 115 217 221 241 235 39 24 56 26
178 31 74 3 141 3 148 1 9 -2 12 -59 12 -242z m615 209 c13 -15 26 -45 30 -67
4 -23 10 -43 15 -46 4 -2 44 24 88 59 45 36 96 69 114 75 33 10 275 18 284 8
3 -2 -45 -110 -105 -238 l-110 -234 -115 -3 c-64 -1 -116 0 -116 3 0 8 27 67
89 195 28 57 49 106 47 108 -2 2 -66 -44 -141 -102 -76 -58 -146 -106 -155
-106 -20 0 -35 16 -43 45 -31 109 -50 165 -58 165 -4 0 -17 -19 -27 -42 -10
-24 -43 -94 -72 -155 l-53 -113 -114 0 c-62 0 -113 2 -113 4 0 6 57 129 135
292 41 86 75 160 75 165 0 20 37 24 175 19 144 -5 147 -5 170 -32z m889 33 c3
-5 -36 -96 -87 -203 -51 -106 -102 -212 -112 -235 l-19 -43 -118 0 c-65 0
-118 2 -118 4 0 2 11 26 24 53 14 26 65 132 114 235 l90 187 104 4 c57 1 106
4 110 5 4 1 9 -2 12 -7z m719 3 c3 -3 -6 -30 -21 -60 l-26 -54 -173 0 c-100 0
-182 -4 -195 -11 -31 -14 -87 -96 -109 -161 -27 -81 -24 -83 181 -83 94 0 170
-4 170 -8 0 -4 -11 -29 -24 -56 -31 -60 -36 -61 -276 -61 -198 0 -240 8 -287
55 -39 39 -42 74 -14 156 54 158 140 250 258 278 43 10 506 14 516 5z m1005
-9 c2 -2 -9 -26 -25 -54 l-28 -51 -142 0 -143 0 -20 -40 c-11 -21 -20 -44 -20
-49 0 -7 54 -12 139 -13 l139 -3 -20 -42 -20 -43 -137 0 c-75 0 -141 -4 -147
-8 -6 -4 -28 -44 -49 -89 l-38 -83 -118 0 -118 0 41 88 c22 48 58 125 79 171
22 46 38 86 35 88 -2 2 -25 -6 -50 -18 -26 -12 -50 -19 -53 -15 -13 12 83 97
142 127 37 18 87 33 125 37 64 7 420 5 428 -3z m346 -46 c-24 -47 -66 -137
-160 -336 l-43 -93 -116 0 c-113 0 -116 1 -110 20 4 12 54 120 113 240 l105
219 106 3 c58 2 111 1 118 0 9 -3 5 -19 -13 -53z m768 38 c-2 -6 -13 -31 -24
-54 l-22 -43 -93 0 -94 0 -90 -185 -89 -185 -115 0 c-63 0 -115 2 -115 5 0 3
38 84 85 181 47 98 85 179 85 182 0 3 -44 2 -97 -2 -75 -5 -111 -13 -151 -32
-29 -15 -55 -24 -58 -21 -12 11 100 110 152 134 71 32 147 39 419 35 160 -2
209 -5 207 -15z"/>
<path d="M2683 3338 c-11 -15 -543 -1184 -551 -1210 -4 -17 16 -18 324 -18
377 0 528 10 611 42 123 45 228 192 430 600 105 212 163 356 163 407 0 56 -49
117 -125 156 l-59 30 -391 3 c-317 3 -393 1 -402 -10z"/>
<path d="M542 568 c-7 -10 -96 -198 -129 -275 -4 -10 21 -13 105 -13 135 0
141 4 206 134 51 104 55 134 16 153 -33 17 -184 17 -198 1z"/>
<path d="M3009 468 c-93 -108 -92 -98 -5 -98 l76 0 0 80 c0 44 -4 80 -8 80 -5
0 -33 -28 -63 -62z"/>
</g>
</svg>
